<svg width="96" height="96" viewBox="0 0 96 96" fill="none" xmlns="http://www.w3.org/2000/svg">
  <rect x="8" y="8" width="80" height="80" rx="24" fill="#FFF1F0"/>
  <ellipse cx="48" cy="29" rx="18" ry="8" fill="#EC5453"/>
  <path d="M30 29V44C30 48.5 38 52 48 52C58 52 66 48.5 66 44V29" fill="#EC5453"/>
  <path d="M30 44V59C30 63.5 38 67 48 67C58 67 66 63.5 66 59V44" fill="#EC5453"/>
  <path d="M30 59V66C30 70.5 38 74 48 74C58 74 66 70.5 66 66V59" fill="#EC5453"/>
  <path d="M30 44C30 48.5 38 52 48 52C58 52 66 48.5 66 44" stroke="white" stroke-width="3"/>
  <path d="M30 59C30 63.5 38 67 48 67C58 67 66 63.5 66 59" stroke="white" stroke-width="3"/>
</svg>
